<svg width="16" height="16" viewBox="0 0 16 16" fill="none" xmlns="http://www.w3.org/2000/svg">
<path d="M4.78003 7.5874C4.78003 7.83805 4.74422 8.05469 4.67261 8.2373C4.60278 8.41992 4.50431 8.5721 4.3772 8.69385C4.25187 8.8138 4.10327 8.90332 3.9314 8.9624C3.75952 9.01969 3.57243 9.04834 3.37012 9.04834C3.17139 9.04834 2.98608 9.03312 2.81421 9.00269C2.64412 8.97404 2.4812 8.93465 2.32544 8.88452V5.20532H2.98071V6.09692L2.95386 6.63403C3.05233 6.50692 3.16691 6.40487 3.29761 6.32788C3.43009 6.2509 3.58854 6.2124 3.77295 6.2124C3.93408 6.2124 4.07731 6.24463 4.20264 6.30908C4.32796 6.37354 4.4327 6.46574 4.51685 6.58569C4.60278 6.70386 4.66813 6.84798 4.71289 7.01807C4.75765 7.18636 4.78003 7.37614 4.78003 7.5874ZM4.09253 7.61426C4.09253 7.46387 4.08179 7.33586 4.0603 7.23022C4.03882 7.12459 4.00749 7.03776 3.96631 6.96973C3.92692 6.90169 3.87769 6.85246 3.8186 6.82202C3.76131 6.78979 3.69507 6.77368 3.61987 6.77368C3.50887 6.77368 3.40234 6.81844 3.30029 6.90796C3.20003 6.99748 3.09351 7.11922 2.98071 7.27319V8.46558C3.03263 8.48527 3.09619 8.50138 3.17139 8.51392C3.24837 8.52645 3.32625 8.53271 3.40503 8.53271C3.50887 8.53271 3.60286 8.51123 3.68701 8.46826C3.77295 8.42529 3.84546 8.36442 3.90454 8.28564C3.96541 8.20687 4.01196 8.11108 4.04419 7.99829C4.07642 7.88371 4.09253 7.7557 4.09253 7.61426ZM7.80664 7.61426C7.80664 7.8291 7.7762 8.02604 7.71533 8.20508C7.65446 8.38232 7.56673 8.53451 7.45215 8.66162C7.33757 8.78874 7.19702 8.88721 7.03052 8.95703C6.86401 9.02686 6.67424 9.06177 6.46118 9.06177C6.25887 9.06177 6.07804 9.03223 5.9187 8.97314C5.75936 8.91406 5.62419 8.82633 5.51318 8.70996C5.40218 8.5918 5.31714 8.44499 5.25806 8.26953C5.19897 8.09229 5.16943 7.88639 5.16943 7.65186C5.16943 7.43522 5.19987 7.23828 5.26074 7.06104C5.3234 6.88379 5.41203 6.7325 5.52661 6.60718C5.64299 6.48185 5.78442 6.38517 5.95093 6.31714C6.11743 6.24731 6.30542 6.2124 6.51489 6.2124C6.71899 6.2124 6.90072 6.24284 7.06006 6.30371C7.2194 6.36279 7.35457 6.45142 7.46558 6.56958C7.57658 6.68774 7.66073 6.83455 7.71802 7.01001C7.7771 7.18368 7.80664 7.38509 7.80664 7.61426ZM7.12451 7.63037C7.12451 7.34749 7.0708 7.13534 6.96338 6.9939C6.85775 6.85067 6.70109 6.77905 6.49341 6.77905C6.37882 6.77905 6.28125 6.80143 6.20068 6.84619C6.12012 6.89095 6.05387 6.95272 6.00195 7.03149C5.95003 7.10848 5.91154 7.19889 5.88647 7.30273C5.8632 7.40658 5.85156 7.51758 5.85156 7.63574C5.85156 7.92041 5.90885 8.13525 6.02344 8.28027C6.13802 8.4235 6.29468 8.49512 6.49341 8.49512C6.60262 8.49512 6.69751 8.47363 6.77808 8.43066C6.85864 8.3859 6.92399 8.32503 6.97412 8.24805C7.02425 8.16927 7.06185 8.07707 7.08691 7.97144C7.11198 7.8658 7.12451 7.75212 7.12451 7.63037ZM10.8306 7.61426C10.8306 7.8291 10.8001 8.02604 10.7393 8.20508C10.6784 8.38232 10.5907 8.53451 10.4761 8.66162C10.3615 8.78874 10.2209 8.88721 10.0544 8.95703C9.88794 9.02686 9.69816 9.06177 9.48511 9.06177C9.2828 9.06177 9.10197 9.03223 8.94263 8.97314C8.78328 8.91406 8.64811 8.82633 8.53711 8.70996C8.42611 8.5918 8.34106 8.44499 8.28198 8.26953C8.2229 8.09229 8.19336 7.88639 8.19336 7.65186C8.19336 7.43522 8.2238 7.23828 8.28467 7.06104C8.34733 6.88379 8.43595 6.7325 8.55054 6.60718C8.66691 6.48185 8.80835 6.38517 8.97485 6.31714C9.14136 6.24731 9.32935 6.2124 9.53882 6.2124C9.74292 6.2124 9.92464 6.24284 10.084 6.30371C10.2433 6.36279 10.3785 6.45142 10.4895 6.56958C10.6005 6.68774 10.6847 6.83455 10.7419 7.01001C10.801 7.18368 10.8306 7.38509 10.8306 7.61426ZM10.1484 7.63037C10.1484 7.34749 10.0947 7.13534 9.9873 6.9939C9.88167 6.85067 9.72502 6.77905 9.51733 6.77905C9.40275 6.77905 9.30518 6.80143 9.22461 6.84619C9.14404 6.89095 9.0778 6.95272 9.02588 7.03149C8.97396 7.10848 8.93547 7.19889 8.9104 7.30273C8.88713 7.40658 8.87549 7.51758 8.87549 7.63574C8.87549 7.92041 8.93278 8.13525 9.04736 8.28027C9.16195 8.4235 9.3186 8.49512 9.51733 8.49512C9.62655 8.49512 9.72144 8.47363 9.802 8.43066C9.88257 8.3859 9.94792 8.32503 9.99805 8.24805C10.0482 8.16927 10.0858 8.07707 10.1108 7.97144C10.1359 7.8658 10.1484 7.75212 10.1484 7.63037ZM12.2781 5.71558H11.5073V5.20532H12.9495V8.48975H13.7363V9H11.4133V8.48975H12.2781V5.71558Z" fill="black"/>
</svg>
