<svg width="16" height="16" viewBox="0 0 16 16" fill="none" xmlns="http://www.w3.org/2000/svg">
<path d="M3.95288 9V7.22217C3.95288 6.92318 3.84188 6.77368 3.61987 6.77368C3.50887 6.77368 3.40234 6.81844 3.30029 6.90796C3.20003 6.99748 3.09351 7.11922 2.98071 7.27319V9H2.32544V6.27148H2.89209L2.9082 6.67432C2.9637 6.60449 3.021 6.54093 3.08008 6.48364C3.14095 6.42635 3.2063 6.37801 3.27612 6.33862C3.34595 6.29744 3.42114 6.26611 3.50171 6.24463C3.58228 6.22314 3.67269 6.2124 3.77295 6.2124C3.9126 6.2124 4.03434 6.23568 4.13818 6.28223C4.24202 6.32699 4.32886 6.39144 4.39868 6.47559C4.46851 6.55794 4.52043 6.6582 4.55444 6.77637C4.59025 6.89274 4.60815 7.02344 4.60815 7.16846V9H3.95288ZM5.99927 6.27148V8.04932C5.99927 8.19792 6.02702 8.31071 6.08252 8.3877C6.13802 8.46289 6.22217 8.50049 6.33496 8.50049C6.44417 8.50049 6.54891 8.45573 6.64917 8.36621C6.75122 8.2749 6.85864 8.15226 6.97144 7.99829V6.27148H7.62671V9H7.06006L7.04395 8.59717C6.98665 8.66699 6.92847 8.73055 6.86938 8.78784C6.8103 8.84513 6.74585 8.89437 6.67603 8.93555C6.60799 8.97493 6.5328 9.00537 6.45044 9.02686C6.36987 9.05013 6.28035 9.06177 6.18188 9.06177C6.04224 9.06177 5.9196 9.03939 5.81396 8.99463C5.71012 8.94808 5.62329 8.88273 5.55347 8.79858C5.48364 8.71444 5.43083 8.61418 5.39502 8.4978C5.361 8.37964 5.34399 8.24805 5.34399 8.10303V6.27148H5.99927ZM9.25415 5.71558H8.4834V5.20532H9.92554V8.48975H10.7124V9H8.3894V8.48975H9.25415V5.71558ZM12.2781 5.71558H11.5073V5.20532H12.9495V8.48975H13.7363V9H11.4133V8.48975H12.2781V5.71558Z" fill="black"/>
</svg>
