<svg width="16" height="16" viewBox="0 0 16 16" fill="none" xmlns="http://www.w3.org/2000/svg">
<path d="M7.24414 11H2.43359V10.0508H4.40234V4.46094L2.56836 5.45703L2.19336 4.58984L4.63086 3.30664H5.5332V10.0508H7.24414V11ZM13.9062 11H8.86133V10.0859L10.8418 8.11719C11.166 7.79688 11.4297 7.51953 11.6328 7.28516C11.8359 7.05078 11.9941 6.83789 12.1074 6.64648C12.2207 6.45117 12.2969 6.26758 12.3359 6.0957C12.375 5.92383 12.3945 5.73828 12.3945 5.53906C12.3945 5.35156 12.3691 5.17383 12.3184 5.00586C12.2676 4.83398 12.1895 4.68359 12.084 4.55469C11.9785 4.42578 11.8418 4.32422 11.6738 4.25C11.5059 4.17578 11.3047 4.13867 11.0703 4.13867C10.7461 4.13867 10.4512 4.21094 10.1855 4.35547C9.91992 4.5 9.67578 4.6875 9.45312 4.91797L8.89062 4.24414C9.17969 3.93945 9.51172 3.69531 9.88672 3.51172C10.2656 3.32813 10.7051 3.23633 11.2051 3.23633C11.5449 3.23633 11.8535 3.28711 12.1309 3.38867C12.4121 3.49023 12.6543 3.63672 12.8574 3.82812C13.0605 4.01953 13.2168 4.25391 13.3262 4.53125C13.4395 4.80859 13.4961 5.12109 13.4961 5.46875C13.4961 5.76172 13.457 6.0332 13.3789 6.2832C13.3008 6.5332 13.1816 6.7832 13.0215 7.0332C12.8652 7.2793 12.666 7.53516 12.4238 7.80078C12.1855 8.06641 11.9023 8.35742 11.5742 8.67383L10.1855 10.0273H13.9062V11Z" fill="black"/>
</svg>
