<svg width="16" height="16" viewBox="0 0 16 16" fill="none" xmlns="http://www.w3.org/2000/svg">
<path d="M6.6582 13.4023H6.22461C5.4707 13.4023 4.91016 13.2246 4.54297 12.8691C4.17578 12.5176 3.99219 11.9824 3.99219 11.2637V9.24805C3.99219 9.05664 3.9707 8.88672 3.92773 8.73828C3.88477 8.58594 3.80859 8.45898 3.69922 8.35742C3.59375 8.25195 3.45117 8.17188 3.27148 8.11719C3.0957 8.0625 2.87305 8.03516 2.60352 8.03516H2.35156V7.2207H2.60352C2.88867 7.2207 3.12109 7.19727 3.30078 7.15039C3.48047 7.10352 3.62109 7.0332 3.72266 6.93945C3.82422 6.8418 3.89453 6.71875 3.93359 6.57031C3.97266 6.42188 3.99219 6.24609 3.99219 6.04297V4.6543C3.99219 4.32617 4.03125 4.03125 4.10938 3.76953C4.1875 3.50391 4.31445 3.2793 4.49023 3.0957C4.66992 2.9082 4.90039 2.76563 5.18164 2.66797C5.4668 2.56641 5.81445 2.51562 6.22461 2.51562H6.6582V3.33594H6.3125C5.40625 3.33594 4.95312 3.77539 4.95312 4.6543V6.01953C4.95312 6.97266 4.54102 7.50977 3.7168 7.63086C4.54883 7.71289 4.96484 8.24805 4.96484 9.23633V11.2402C4.96484 12.1348 5.41406 12.582 6.3125 12.582H6.6582V13.4023ZM9.3418 2.51562H9.77539C10.5293 2.51562 11.0898 2.69336 11.457 3.04883C11.8242 3.40039 12.0078 3.93555 12.0078 4.6543V6.00781C12.0078 6.19922 12.0293 6.37109 12.0723 6.52344C12.1152 6.67188 12.1895 6.79883 12.2949 6.9043C12.4043 7.00586 12.5488 7.08398 12.7285 7.13867C12.9082 7.19336 13.1328 7.2207 13.4023 7.2207H13.6543V8.03516H13.4023C13.1172 8.03516 12.8828 8.05859 12.6992 8.10547C12.5195 8.15234 12.3789 8.22461 12.2773 8.32227C12.1758 8.41602 12.1055 8.53711 12.0664 8.68555C12.0273 8.83398 12.0078 9.00977 12.0078 9.21289V11.2637C12.0078 11.5918 11.9688 11.8867 11.8906 12.1484C11.8125 12.4141 11.6855 12.6387 11.5098 12.8223C11.334 13.0098 11.1035 13.1523 10.8184 13.25C10.5332 13.3516 10.1855 13.4023 9.77539 13.4023H9.3418V12.582H9.69336C10.5957 12.582 11.0469 12.1426 11.0469 11.2637V9.23633C11.0469 8.2832 11.459 7.74805 12.2832 7.63086C11.4512 7.54102 11.0352 7.00391 11.0352 6.01953V4.67773C11.0352 3.7832 10.5879 3.33594 9.69336 3.33594H9.3418V2.51562Z" fill="black"/>
</svg>
