<svg width="16" height="16" viewBox="0 0 16 16" fill="none" xmlns="http://www.w3.org/2000/svg">
<path d="M6.11914 11L6.0957 10.209C5.77539 10.5254 5.44922 10.7539 5.11719 10.8945C4.78906 11.0352 4.44336 11.1055 4.08008 11.1055C3.74414 11.1055 3.45703 11.0625 3.21875 10.9766C2.98047 10.8906 2.7832 10.7734 2.62695 10.625C2.47461 10.4727 2.36133 10.2949 2.28711 10.0918C2.2168 9.88867 2.18164 9.66797 2.18164 9.42969C2.18164 8.83984 2.40039 8.37891 2.83789 8.04688C3.2793 7.71094 3.92969 7.54297 4.78906 7.54297H6.00781V7.02734C6.00781 6.67969 5.89648 6.40234 5.67383 6.19531C5.45117 5.98438 5.11133 5.87891 4.6543 5.87891C4.32227 5.87891 3.99414 5.91602 3.66992 5.99023C3.34961 6.06445 3.01758 6.16992 2.67383 6.30664V5.38672C2.80273 5.33984 2.94531 5.29492 3.10156 5.25195C3.26172 5.20508 3.42969 5.16406 3.60547 5.12891C3.78125 5.09375 3.96484 5.06641 4.15625 5.04688C4.34766 5.02344 4.54102 5.01172 4.73633 5.01172C5.0918 5.01172 5.41211 5.05078 5.69727 5.12891C5.98242 5.20703 6.22266 5.32617 6.41797 5.48633C6.61719 5.64648 6.76953 5.84766 6.875 6.08984C6.98047 6.33203 7.0332 6.61719 7.0332 6.94531V11H6.11914ZM6.00781 8.32227H4.71289C4.45898 8.32227 4.24023 8.34766 4.05664 8.39844C3.87305 8.44922 3.72266 8.52148 3.60547 8.61523C3.48828 8.70898 3.40039 8.82227 3.3418 8.95508C3.28711 9.08398 3.25977 9.23047 3.25977 9.39453C3.25977 9.50781 3.27734 9.61719 3.3125 9.72266C3.34766 9.82422 3.4043 9.91602 3.48242 9.99805C3.56055 10.0762 3.66211 10.1387 3.78711 10.1855C3.91211 10.2324 4.06445 10.2559 4.24414 10.2559C4.47852 10.2559 4.74609 10.1855 5.04688 10.0449C5.35156 9.90039 5.67188 9.67383 6.00781 9.36523V8.32227ZM13.9648 7.95312C13.9648 8.44141 13.8965 8.87891 13.7598 9.26562C13.627 9.64844 13.4355 9.97461 13.1855 10.2441C12.9395 10.5098 12.6387 10.7148 12.2832 10.8594C11.9277 11 11.5273 11.0703 11.082 11.0703C10.7344 11.0703 10.3789 11.0371 10.0156 10.9707C9.65234 10.9043 9.29297 10.7988 8.9375 10.6543V2.7207H9.95703V5L9.91016 6.08984C10.2031 5.69531 10.5156 5.41797 10.8477 5.25781C11.1836 5.09375 11.543 5.01172 11.9258 5.01172C12.2617 5.01172 12.5566 5.08203 12.8105 5.22266C13.0645 5.36328 13.2773 5.5625 13.4492 5.82031C13.6211 6.07422 13.75 6.38281 13.8359 6.74609C13.9219 7.10547 13.9648 7.50781 13.9648 7.95312ZM12.9219 8C12.9219 7.69141 12.8984 7.4082 12.8516 7.15039C12.8086 6.89258 12.7383 6.67188 12.6406 6.48828C12.543 6.30469 12.418 6.16211 12.2656 6.06055C12.1133 5.95508 11.9316 5.90234 11.7207 5.90234C11.5918 5.90234 11.4609 5.92383 11.3281 5.9668C11.1953 6.00586 11.0566 6.07422 10.9121 6.17188C10.7715 6.26562 10.6211 6.39258 10.4609 6.55273C10.3047 6.70898 10.1367 6.9043 9.95703 7.13867V9.99219C10.1562 10.0703 10.3594 10.1328 10.5664 10.1797C10.7734 10.2227 10.9707 10.2441 11.1582 10.2441C11.3926 10.2441 11.6152 10.207 11.8262 10.1328C12.041 10.0586 12.2285 9.93555 12.3887 9.76367C12.5527 9.58789 12.6816 9.35742 12.7754 9.07227C12.873 8.7832 12.9219 8.42578 12.9219 8Z" fill="black"/>
</svg>